HIERARCHY
ROOT Hips
{
	OFFSET 0.00 0.00 0.00
	CHANNELS 6 Xposition Yposition Zposition Xrotation Yrotation Zrotation
	JOINT LeftUpLeg
	{
		OFFSET 3.25772 0.00000 0.00000
		CHANNELS 3 Xrotation Yrotation Zrotation
		JOINT LeftLeg
		{
			OFFSET 0.00000 -15.35355 0.00000
			CHANNELS 3 Xrotation Yrotation Zrotation
			JOINT LeftFoot
			{
				OFFSET 0.00000 -16.48949 0.00000
				CHANNELS 3 Xrotation Yrotation Zrotation
				JOINT LeftToeBase
				{
					OFFSET 0.00000 -1.72224 6.42750
					CHANNELS 3 Xrotation Yrotation Zrotation
					End Site
					{
						OFFSET 0.00000 0.00000 2.95275
					}
				}
			}
		}
	}
	JOINT RightUpLeg
	{
		OFFSET -3.25772 0.00000 0.00000
		CHANNELS 3 Xrotation Yrotation Zrotation
		JOINT RightLeg
		{
			OFFSET 0.00000 -15.35355 0.00000
			CHANNELS 3 Xrotation Yrotation Zrotation
			JOINT RightFoot
			{
				OFFSET 0.00000 -16.48949 0.00000
				CHANNELS 3 Xrotation Yrotation Zrotation
				JOINT RightToeBase
				{
					OFFSET 0.00000 -1.72224 6.42750
					CHANNELS 3 Xrotation Yrotation Zrotation
					End Site
					{
						OFFSET 0.00000 0.00000 2.95275
					}
				}
			}
		}
	}
	JOINT Spine
	{
		OFFSET 0.00000 0.03937 0.00000
		CHANNELS 3 Xrotation Yrotation Zrotation
		JOINT Spine1
		{
			OFFSET 0.00000 10.14986 0.00000
			CHANNELS 3 Xrotation Yrotation Zrotation
			JOINT Neck
			{
				OFFSET 0.00000 9.84250 0.00000
				CHANNELS 3 Xrotation Yrotation Zrotation
				JOINT Head
				{
					OFFSET 0.00000 4.54023 0.00000
					CHANNELS 3 Xrotation Yrotation Zrotation
					End Site
					{
						OFFSET 0.00000 4.52755 0.00000
					}
				}
			}
			JOINT LeftShoulder
			{
				OFFSET 0.00000 9.84250 0.00000
				CHANNELS 3 Xrotation Yrotation Zrotation
				JOINT LeftArm
				{
					OFFSET 7.21510 -0.00003 0.00000
					CHANNELS 3 Xrotation Yrotation Zrotation
					JOINT LeftForeArm
					{
						OFFSET 10.66411 -0.00004 0.00000
						CHANNELS 3 Xrotation Yrotation Zrotation
						JOINT LeftHand
						{
							OFFSET 8.93656 -0.00003 0.00000
							CHANNELS 3 Xrotation Yrotation Zrotation
							JOINT L_Wrist_End
							{
								OFFSET 3.93700 -0.00001 0.00000
								CHANNELS 3 Xrotation Yrotation Zrotation
							}
						}
					}
				}
			}
			JOINT RightShoulder
			{
				OFFSET 0.00000 9.84250 0.00000
				CHANNELS 3 Xrotation Yrotation Zrotation
				JOINT RightArm
				{
					OFFSET -7.21510 -0.00003 0.00000
					CHANNELS 3 Xrotation Yrotation Zrotation
					JOINT RightForeArm
					{
						OFFSET -10.66411 -0.00004 0.00000
						CHANNELS 3 Xrotation Yrotation Zrotation
						JOINT RightHand
						{
							OFFSET -8.93656 -0.00003 0.00000
							CHANNELS 3 Xrotation Yrotation Zrotation
							JOINT R_Wrist_End
							{
								OFFSET -5.41338 -0.00002 0.00000
								CHANNELS 3 Xrotation Yrotation Zrotation
							}
						}
					}
				}
			}
		}
	}
}
MOTION
Frames: 17
Frame Time: 0.008333
 -0.3081 33.8472 4.6115 0.6482 1.0027 -1.6190 5.5625 21.1388 7.3802 2.0194 -0.0000 -0.0000 -2.0783 -3.1008 0.5863 -34.3748 0.0000 -0.0000 6.3025 1.0853 1.2621 5.5041 -0.0000 0.0000 -3.8467 -9.7955 -1.0391 -31.8882 0.0000 0.0000 -16.0331 -2.0530 -3.8785 27.1493 3.6358 4.3694 -24.0336 -22.6902 6.7835 -3.5006 -2.7994 -14.2315 8.5100 8.6010 15.3443 -20.7928 10.9362 -32.1451 -0.0000 -6.7315 -0.0000 -4.2401 2.2810 19.7529 -0.0000 0.0000 -0.0000 8.9997 -5.1335 -14.9483 -10.4277 -2.2858 26.4527 -0.0001 19.2536 0.0000 -19.9946 -13.2585 -19.8719 -0.0000 0.0000 -0.0000
 -0.3057 33.8513 4.6079 0.6718 1.0025 -1.6011 5.5711 21.1154 7.3379 1.9704 -0.0000 -0.0000 -2.0272 -3.0963 0.6010 -34.3803 0.0000 0.0000 6.2378 1.1095 1.2423 5.5575 -0.0000 0.0000 -3.7988 -9.8043 -1.0743 -31.9912 0.0000 -0.0000 -15.9893 -2.0619 -3.8721 27.1109 3.6334 4.3766 -24.9708 -23.4226 6.2583 -2.1380 -2.2177 -13.9528 8.4442 8.5957 15.2228 -20.7186 10.8967 -32.0420 -0.0000 -6.7665 -0.0000 -4.2923 2.3156 19.6404 -0.0000 0.0000 -0.0000 8.9381 -5.1768 -14.9126 -10.4069 -2.2584 26.4035 -0.0001 19.3707 0.0000 -20.0162 -13.3819 -19.9326 -0.0000 0.0000 -0.0000
 -0.3102 33.8505 4.6042 0.7037 0.9501 -1.5840 5.5039 21.2240 7.3234 2.0318 0.0000 0.0000 -2.0566 -3.1190 0.5354 -34.3682 0.0000 -0.0000 6.2270 1.0377 1.2254 5.5064 -0.0000 0.0000 -3.8316 -9.6981 -1.0542 -31.8808 0.0000 0.0000 -15.9600 -2.0340 -3.8706 27.0387 3.6653 4.3722 -25.2851 -23.8552 5.9068 -1.5881 -1.8911 -13.6083 8.5164 8.6176 15.1820 -20.8106 10.8595 -32.0278 -0.0000 -6.7168 -0.0000 -4.3674 2.2192 19.6166 -0.0000 -0.0000 0.0000 8.8966 -5.1743 -14.9219 -10.2948 -2.2258 26.4142 -0.0001 19.3209 0.0000 -20.0177 -13.3319 -19.9357 -0.0000 -0.0000 0.0000
 -0.3134 33.8497 4.6099 0.7088 0.9821 -1.5813 5.5587 21.0405 7.3104 1.9712 0.0000 0.0000 -2.0357 -2.9521 0.5579 -34.3965 0.0000 0.0000 6.1778 1.0531 1.2389 5.6211 -0.0000 0.0000 -3.8887 -9.7725 -1.0926 -31.8737 0.0000 -0.0000 -15.9616 -2.0395 -3.8708 27.0276 3.6614 4.3767 -25.3267 -23.9417 5.8356 -1.5197 -1.8289 -13.5495 8.5298 8.6109 15.1758 -20.8349 10.8346 -32.0235 -0.0000 -6.7103 -0.0000 -4.3788 2.2825 19.6062 -0.0000 0.0000 -0.0000 8.9208 -5.1919 -14.9088 -10.2959 -2.2496 26.4129 -0.0001 19.3510 0.0000 -20.0213 -13.3299 -19.9962 -0.0000 -0.0000 0.0000
 -0.3146 33.8502 4.6103 0.7115 0.9797 -1.5762 5.5376 21.1825 7.3167 1.9676 -0.0000 0.0000 -2.0731 -3.0319 0.6381 -34.2679 0.0000 -0.0000 6.1751 1.0828 1.2311 5.6138 -0.0000 0.0000 -3.8720 -9.7635 -1.0612 -31.8998 0.0000 0.0000 -15.9588 -2.0417 -3.8658 27.0299 3.6615 4.3817 -25.3795 -23.9502 5.8050 -1.4684 -1.7588 -13.5600 8.5475 8.6045 15.1685 -20.8808 10.8539 -32.0347 -0.0000 -6.6801 -0.0000 -4.3032 2.2665 19.6593 -0.0000 -0.0000 0.0000 8.9159 -5.1954 -14.9105 -10.3133 -2.2567 26.3946 -0.0001 19.3606 0.0000 -19.9671 -13.3385 -19.9500 -0.0000 0.0000 -0.0000
 -0.3196 33.8504 4.6110 0.7258 0.9744 -1.5705 5.5284 21.1910 7.3234 1.9653 0.0000 0.0000 -2.0306 -3.0821 0.6662 -34.2890 0.0000 -0.0000 6.1911 1.0181 1.2342 5.5627 -0.0000 0.0000 -3.8676 -9.7293 -1.0377 -31.8678 0.0000 -0.0000 -15.9542 -2.0432 -3.8664 27.0263 3.6615 4.3833 -25.4213 -24.0767 5.7536 -1.4269 -1.7591 -13.5112 8.5273 8.5957 15.1602 -20.7793 10.8279 -32.0473 -0.0000 -6.6982 -0.0000 -4.4868 2.2812 19.6415 -0.0000 0.0000 -0.0000 8.8912 -5.1983 -14.9067 -10.3272 -2.2684 26.4000 -0.0001 19.4104 0.0000 -19.9852 -13.4158 -20.0240 -0.0000 0.0000 -0.0000
 -0.3223 33.8503 4.6123 0.7281 0.9739 -1.5686 5.5257 21.1790 7.3201 1.9645 0.0000 -0.0000 -2.0060 -3.0758 0.5824 -34.3416 0.0000 -0.0000 6.1902 1.0337 1.2320 5.5643 -0.0000 0.0000 -3.8506 -9.7147 -1.0620 -31.8964 0.0000 -0.0000 -15.9484 -2.0456 -3.8628 27.0350 3.6601 4.3853 -25.4279 -24.0843 5.7475 -1.4338 -1.7551 -13.5055 8.5399 8.5947 15.1548 -20.7637 10.8258 -32.0568 -0.0000 -6.6942 -0.0000 -4.4593 2.2789 19.6795 -0.0000 -0.0000 0.0000 8.9115 -5.2019 -14.9087 -10.3138 -2.2694 26.3954 -0.0001 19.4056 0.0000 -20.0703 -13.2904 -19.9973 -0.0000 0.0000 -0.0000
 -0.3265 33.8497 4.6130 0.7328 0.9767 -1.5645 5.5190 21.1324 7.3217 1.9771 -0.0000 -0.0000 -1.9839 -3.0618 0.5660 -34.3845 0.0000 -0.0000 6.1820 1.0842 1.2416 5.5836 -0.0000 0.0000 -3.9057 -9.8439 -1.0813 -31.8583 0.0000 -0.0000 -15.9469 -2.0473 -3.8652 27.0405 3.6603 4.3870 -25.4278 -24.1235 5.7272 -1.4087 -1.7342 -13.4828 8.5603 8.5906 15.1536 -20.7456 10.8169 -32.0646 -0.0000 -6.7036 -0.0000 -4.4198 2.2653 19.6648 -0.0000 0.0000 -0.0000 8.8581 -5.2040 -14.9121 -10.2966 -2.2748 26.4016 -0.0001 19.4392 0.0000 -20.0637 -13.3283 -20.0288 -0.0000 -0.0000 0.0000
 -0.3299 33.8491 4.6136 0.7384 0.9786 -1.5601 5.5054 21.2047 7.3317 1.9817 -0.0000 0.0000 -2.0104 -3.1466 0.5579 -34.3053 0.0000 0.0000 6.1777 1.0143 1.2369 5.5765 -0.0000 0.0000 -3.8784 -9.7067 -1.0702 -31.9203 0.0000 0.0000 -15.9483 -2.0432 -3.8610 27.0480 3.6670 4.3909 -25.4625 -24.1504 5.7007 -1.3550 -1.6824 -13.4698 8.5481 8.5860 15.1474 -20.7297 10.7867 -32.0707 -0.0000 -6.7189 -0.0000 -4.4965 2.3038 19.6336 -0.0000 -0.0000 0.0000 8.8768 -5.2046 -14.9164 -10.3017 -2.2977 26.3992 -0.0001 19.4279 0.0000 -20.0648 -13.3147 -20.0039 -0.0000 -0.0000 0.0000
 -0.3346 33.8498 4.6135 0.7469 0.9682 -1.5606 5.4993 21.1746 7.3383 1.9716 -0.0000 -0.0000 -1.9590 -3.0998 0.5797 -34.4030 0.0000 0.0000 6.1870 0.8593 1.2384 5.5402 -0.0000 0.0000 -3.8735 -9.5470 -1.0813 -31.8455 0.0000 -0.0000 -15.9479 -2.0444 -3.8624 27.0589 3.6670 4.3919 -25.4818 -24.1798 5.6849 -1.3213 -1.6609 -13.4439 8.5761 8.5874 15.1350 -20.7212 10.7894 -32.0698 -0.0000 -6.6813 -0.0000 -4.5082 2.1633 19.6026 -0.0000 0.0000 -0.0000 8.8457 -5.1984 -14.9155 -10.3253 -2.3098 26.4040 -0.0001 19.4375 0.0000 -19.9481 -13.3057 -19.9772 -0.0000 0.0000 -0.0000
 -0.3373 33.8484 4.6172 0.7479 0.9747 -1.5563 5.5061 21.1699 7.3380 1.9726 -0.0000 -0.0000 -1.9909 -3.1140 0.5702 -34.3570 0.0000 0.0000 6.1637 0.9564 1.2449 5.5917 -0.0000 0.0000 -3.9069 -9.6390 -1.0773 -31.8745 0.0000 0.0000 -15.9553 -2.0445 -3.8584 27.0668 3.6691 4.3972 -25.4812 -24.2024 5.6653 -1.2889 -1.6305 -13.4449 8.5599 8.5761 15.1339 -20.7384 10.7884 -32.0734 -0.0000 -6.6737 -0.0000 -4.5114 2.2514 19.6124 -0.0000 -0.0000 0.0000 8.8687 -5.2030 -14.9222 -10.2543 -2.2873 26.3921 -0.0001 19.4784 0.0000 -20.0889 -13.3357 -20.0490 -0.0000 0.0000 -0.0000
 -0.3441 33.8485 4.6194 0.7541 0.9750 -1.5551 5.5296 21.0654 7.3355 1.9359 -0.0000 0.0000 -1.9676 -2.9846 0.5272 -34.3565 0.0000 -0.0000 6.1460 1.0333 1.2606 5.6244 -0.0000 0.0000 -3.9020 -9.7178 -1.1460 -31.9180 0.0000 0.0000 -15.9642 -2.0449 -3.8641 27.0779 3.6700 4.3979 -25.4694 -24.2285 5.6604 -1.2606 -1.6200 -13.4241 8.6062 8.5738 15.1250 -20.7775 10.7947 -32.0630 -0.0000 -6.6740 -0.0000 -4.5888 2.2427 19.6090 -0.0000 0.0000 -0.0000 8.8175 -5.1980 -14.9147 -10.2661 -2.3101 26.3940 -0.0001 19.4867 0.0000 -19.9992 -13.2487 -19.9506 -0.0000 0.0000 -0.0000
 -0.3494 33.8490 4.6261 0.7578 0.9700 -1.5525 5.5036 21.1570 7.3535 1.9769 0.0000 0.0000 -1.9778 -3.0825 0.5331 -34.3059 0.0000 0.0000 6.1556 1.0666 1.2670 5.6174 -0.0000 0.0000 -3.9298 -9.7450 -1.1338 -31.8667 0.0000 -0.0000 -15.9706 -2.0432 -3.8648 27.0782 3.6737 4.4010 -25.4633 -24.2260 5.6538 -1.2510 -1.5886 -13.4130 8.5746 8.5628 15.1253 -20.7572 10.8035 -32.0607 -0.0000 -6.6513 -0.0000 -4.4690 2.2695 19.5954 -0.0000 -0.0000 0.0000 8.8037 -5.1956 -14.9139 -10.1885 -2.2986 26.3859 -0.0001 19.5066 0.0000 -20.0256 -13.2210 -19.9683 -0.0000 0.0000 -0.0000
 -0.3504 33.8477 4.6250 0.7618 0.9702 -1.5488 5.4938 21.1544 7.3562 1.9931 0.0000 -0.0000 -1.9656 -3.0820 0.5621 -34.4134 0.0000 -0.0000 6.1572 1.1806 1.2668 5.6005 -0.0000 0.0000 -3.9394 -9.8521 -1.0920 -31.8289 0.0000 -0.0000 -15.9686 -2.0431 -3.8596 27.0876 3.6767 4.4063 -25.4453 -24.2199 5.6557 -1.2532 -1.5726 -13.4083 8.5606 8.5598 15.1183 -20.7914 10.8126 -32.0651 -0.0000 -6.6786 -0.0000 -4.4607 2.4176 19.6029 -0.0000 0.0000 -0.0000 8.7884 -5.1896 -14.9228 -10.1972 -2.3006 26.3749 -0.0001 19.4771 0.0000 -20.0533 -13.1854 -19.9471 -0.0000 0.0000 -0.0000
 -0.3582 33.8471 4.6308 0.7665 0.9705 -1.5470 5.5057 21.1593 7.3700 1.9781 0.0000 0.0000 -1.9534 -3.1074 0.5994 -34.4000 0.0000 0.0000 6.1524 1.1017 1.2780 5.6232 -0.0000 0.0000 -3.9267 -9.7596 -1.1024 -31.9096 0.0000 -0.0000 -15.9814 -2.0420 -3.8672 27.0854 3.6786 4.4064 -25.4257 -24.2508 5.6468 -1.2217 -1.5668 -13.3948 8.5633 8.5616 15.1199 -20.8189 10.8269 -32.0543 -0.0000 -6.6861 -0.0000 -4.4044 2.4464 19.6119 -0.0000 0.0000 -0.0000 8.8146 -5.2010 -14.9169 -10.1968 -2.2968 26.3871 -0.0001 19.5168 0.0000 -20.0583 -13.2247 -20.0162 -0.0000 -0.0000 0.0000
 -0.3639 33.8471 4.6318 0.7746 0.9787 -1.5482 5.5217 21.1460 7.3738 1.9166 0.0000 0.0000 -1.9271 -3.1259 0.5736 -34.4314 0.0000 0.0000 6.1461 1.0231 1.2959 5.6391 -0.0000 0.0000 -3.9594 -9.8013 -1.0920 -31.8929 0.0000 0.0000 -15.9859 -2.0409 -3.8683 27.0947 3.6824 4.4097 -25.3950 -24.2421 5.6424 -1.2478 -1.5412 -13.3472 8.5398 8.5489 15.1198 -20.8484 10.8358 -32.0553 -0.0000 -6.6818 -0.0000 -4.3989 2.4618 19.6736 -0.0000 -0.0000 0.0000 8.8012 -5.2115 -14.9187 -10.1693 -2.2849 26.3930 -0.0001 19.5073 0.0000 -20.0257 -13.2627 -20.0416 -0.0000 -0.0000 0.0000
 -0.3707 33.8465 4.6341 0.7801 0.9567 -1.5539 5.5166 21.2285 7.3874 1.9002 -0.0000 0.0000 -1.9198 -3.1595 0.4879 -34.4397 0.0000 -0.0000 6.1108 1.1642 1.3143 5.6847 -0.0000 0.0000 -3.9760 -9.8505 -1.1390 -31.8736 0.0000 -0.0000 -16.0062 -2.0315 -3.8756 27.1259 3.7091 4.4316 -25.3785 -24.3191 5.6121 -1.2784 -1.4800 -13.3049 8.5706 8.5269 15.1269 -20.9059 10.9283 -32.0659 -0.0000 -6.7701 -0.0000 -4.2613 2.4811 19.6633 -0.0000 0.0000 -0.0000 8.7765 -5.2550 -14.9239 -10.1274 -2.1911 26.3801 -0.0001 19.4443 0.0000 -20.0989 -13.1739 -20.0133 -0.0000 0.0000 -0.0000
